<svg xmlns="http://www.w3.org/2000/svg" height="24" viewBox="0 0 24 24" width="24"><path fill="none" stroke="currentColor" stroke-width="1.6" stroke-linejoin="round" d="M12 2.8C7.47 2.8 3.8 6.47 3.8 11c0 2.6 1.22 4.92 3.13 6.43.55.43.87 1.09.87 1.79V21c0 .11.09.2.2.2h1.8v-1.6c0-.22.18-.4.4-.4h2.2c.22 0 .4.18.4.4v1.6h2v-1.6c0-.22.18-.4.4-.4h2.2c.22 0 .4.18.4.4V21.2h1.8c.11 0 .2-.09.2-.2v-1.78c0-.7.32-1.36.87-1.79C18.98 15.92 20.2 13.6 20.2 11c0-4.53-3.67-8.2-8.2-8.2z"/><circle cx="8.5" cy="10.5" r="1.6" fill="none" stroke="currentColor" stroke-width="1.6"/><circle cx="15.5" cy="10.5" r="1.6" fill="none" stroke="currentColor" stroke-width="1.6"/></svg>
